<svg id="visual" viewBox="0 0 900 600" width="900" height="600" xmlns="http://www.w3.org/2000/svg" xmlns:xlink="http://www.w3.org/1999/xlink" version="1.1"><rect x="0" y="0" width="900" height="600" fill="#002233"></rect><path d="M0 453L21.5 454.2C43 455.3 86 457.7 128.8 465.7C171.7 473.7 214.3 487.3 257.2 480.7C300 474 343 447 385.8 426.7C428.7 406.3 471.3 392.7 514.2 387.8C557 383 600 387 642.8 386.3C685.7 385.7 728.3 380.3 771.2 392.5C814 404.7 857 434.3 878.5 449.2L900 464L900 601L878.5 601C857 601 814 601 771.2 601C728.3 601 685.7 601 642.8 601C600 601 557 601 514.2 601C471.3 601 428.7 601 385.8 601C343 601 300 601 257.2 601C214.3 601 171.7 601 128.8 601C86 601 43 601 21.5 601L0 601Z" fill="#0066FF" stroke-linecap="round" stroke-linejoin="miter"></path></svg>