<svg id="visual" viewBox="0 0 800 4000" width="800" height="4000" xmlns="http://www.w3.org/2000/svg" xmlns:xlink="http://www.w3.org/1999/xlink" version="1.1"><path d="M0 601L44.5 601C89 601 178 601 266.8 594.3C355.7 587.7 444.3 574.3 533.2 554.3C622 534.3 711 507.7 755.5 494.3L800 481L800 0L755.5 0C711 0 622 0 533.2 0C444.3 0 355.7 0 266.8 0C178 0 89 0 44.5 0L0 0Z" fill="#001b98"></path><path d="M0 1641L44.5 1641C89 1641 178 1641 266.8 1601C355.7 1561 444.3 1481 533.2 1427.7C622 1374.3 711 1347.7 755.5 1334.3L800 1321L800 479L755.5 492.3C711 505.7 622 532.3 533.2 552.3C444.3 572.3 355.7 585.7 266.8 592.3C178 599 89 599 44.5 599L0 599Z" fill="#00239b"></path><path d="M0 1921L44.5 1914.3C89 1907.7 178 1894.3 266.8 1861C355.7 1827.7 444.3 1774.3 533.2 1754.3C622 1734.3 711 1747.7 755.5 1754.3L800 1761L800 1319L755.5 1332.3C711 1345.7 622 1372.3 533.2 1425.7C444.3 1479 355.7 1559 266.8 1599C178 1639 89 1639 44.5 1639L0 1639Z" fill="#002a9e"></path><path d="M0 2841L44.5 2814.3C89 2787.7 178 2734.3 266.8 2701C355.7 2667.7 444.3 2654.3 533.2 2667.7C622 2681 711 2721 755.5 2741L800 2761L800 1759L755.5 1752.3C711 1745.7 622 1732.3 533.2 1752.3C444.3 1772.3 355.7 1825.7 266.8 1859C178 1892.3 89 1905.7 44.5 1912.3L0 1919Z" fill="#0031a0"></path><path d="M0 3241L44.5 3241C89 3241 178 3241 266.8 3247.7C355.7 3254.3 444.3 3267.7 533.2 3307.7C622 3347.7 711 3414.3 755.5 3447.7L800 3481L800 2759L755.5 2739C711 2719 622 2679 533.2 2665.7C444.3 2652.3 355.7 2665.7 266.8 2699C178 2732.3 89 2785.7 44.5 2812.3L0 2839Z" fill="#0037a2"></path><path d="M0 3601L44.5 3601C89 3601 178 3601 266.8 3587.7C355.7 3574.3 444.3 3547.7 533.2 3561C622 3574.3 711 3627.7 755.5 3654.3L800 3681L800 3479L755.5 3445.7C711 3412.3 622 3345.7 533.2 3305.7C444.3 3265.7 355.7 3252.3 266.8 3245.7C178 3239 89 3239 44.5 3239L0 3239Z" fill="#003da4"></path><path d="M0 4001L44.5 4001C89 4001 178 4001 266.8 4001C355.7 4001 444.3 4001 533.2 4001C622 4001 711 4001 755.5 4001L800 4001L800 3679L755.5 3652.3C711 3625.7 622 3572.3 533.2 3559C444.3 3545.7 355.7 3572.3 266.8 3585.7C178 3599 89 3599 44.5 3599L0 3599Z" fill="#0043a6"></path></svg>