<svg id="visual" viewBox="0 0 960 540" width="960" height="540" xmlns="http://www.w3.org/2000/svg" xmlns:xlink="http://www.w3.org/1999/xlink" version="1.1"><path d="M0 136L32 141.3C64 146.7 128 157.3 192 154.7C256 152 320 136 384 130.7C448 125.3 512 130.7 576 143.2C640 155.7 704 175.3 768 166.3C832 157.3 896 119.7 928 100.8L960 82L960 0L928 0C896 0 832 0 768 0C704 0 640 0 576 0C512 0 448 0 384 0C320 0 256 0 192 0C128 0 64 0 32 0L0 0Z" fill="#0a1c35"></path><path d="M0 179L32 186.2C64 193.3 128 207.7 192 210.3C256 213 320 204 384 195C448 186 512 177 576 182.5C640 188 704 208 768 198.2C832 188.3 896 148.7 928 128.8L960 109L960 80L928 98.8C896 117.7 832 155.3 768 164.3C704 173.3 640 153.7 576 141.2C512 128.7 448 123.3 384 128.7C320 134 256 150 192 152.7C128 155.3 64 144.7 32 139.3L0 134Z" fill="#0a1f3c"></path><path d="M0 314L32 316.7C64 319.3 128 324.7 192 323.8C256 323 320 316 384 306.2C448 296.3 512 283.7 576 281.8C640 280 704 289 768 297.2C832 305.3 896 312.7 928 316.3L960 320L960 107L928 126.8C896 146.7 832 186.3 768 196.2C704 206 640 186 576 180.5C512 175 448 184 384 193C320 202 256 211 192 208.3C128 205.7 64 191.3 32 184.2L0 177Z" fill="#0b2243"></path><path d="M0 390L32 388.2C64 386.3 128 382.7 192 380.8C256 379 320 379 384 374.5C448 370 512 361 576 355.7C640 350.3 704 348.7 768 353.2C832 357.7 896 368.3 928 373.7L960 379L960 318L928 314.3C896 310.7 832 303.3 768 295.2C704 287 640 278 576 279.8C512 281.7 448 294.3 384 304.2C320 314 256 321 192 321.8C128 322.7 64 317.3 32 314.7L0 312Z" fill="#102a50"></path><path d="M0 487L32 478.8C64 470.7 128 454.3 192 451.7C256 449 320 460 384 461.8C448 463.7 512 456.3 576 459C640 461.7 704 474.3 768 478C832 481.7 896 476.3 928 473.7L960 471L960 377L928 371.7C896 366.3 832 355.7 768 351.2C704 346.7 640 348.3 576 353.7C512 359 448 368 384 372.5C320 377 256 377 192 378.8C128 380.7 64 384.3 32 386.2L0 388Z" fill="#193764"></path><path d="M0 541L32 541C64 541 128 541 192 541C256 541 320 541 384 541C448 541 512 541 576 541C640 541 704 541 768 541C832 541 896 541 928 541L960 541L960 469L928 471.7C896 474.3 832 479.7 768 476C704 472.3 640 459.7 576 457C512 454.3 448 461.7 384 459.8C320 458 256 447 192 449.7C128 452.3 64 468.7 32 476.8L0 485Z" fill="#234578"></path></svg>